<?xml version="1.0" encoding="iso-8859-1"?>
<!-- Generator: Adobe Illustrator 19.0.0, SVG Export Plug-In . SVG Version: 6.00 Build 0)  -->
<svg version="1.1" id="Layer_1" xmlns="http://www.w3.org/2000/svg" xmlns:xlink="http://www.w3.org/1999/xlink" x="0px" y="0px"
	 viewBox="0 0 512 512" style="enable-background:new 0 0 512 512;" xml:space="preserve">
<polygon style="fill:#FAD97F;" points="434.4,154.4 316.8,154.4 258.4,256 317.6,357.6 435.2,357.6 493.6,256 "/>
<path d="M444,138.4H308L240,256l68,117.6h136L512,256L444,138.4z M317.6,357.6L258.4,256l58.4-101.6h117.6L493.6,256l-58.4,101.6
	H317.6z"/>
<polygon style="fill:#E8E8E8;" points="195.2,16 77.6,16 18.4,117.6 77.6,219.2 195.2,219.2 253.6,117.6 "/>
<path d="M204,0H68L0,117.6l68,117.6h136l68-117.6L204,0z M77.6,219.2L18.4,117.6L77.6,16h117.6l58.4,101.6l-58.4,101.6H77.6z"/>
<polygon style="fill:#F2385A;" points="194.4,292.8 76.8,292.8 18.4,394.4 77.6,496 194.4,496 252.8,394.4 "/>
<path d="M204,276.8H68L0,394.4L68,512h136l68-117.6L204,276.8z M77.6,496L18.4,394.4l58.4-101.6h117.6l58.4,101.6L194.4,496H77.6z"
	/>
<g>
</g>
<g>
</g>
<g>
</g>
<g>
</g>
<g>
</g>
<g>
</g>
<g>
</g>
<g>
</g>
<g>
</g>
<g>
</g>
<g>
</g>
<g>
</g>
<g>
</g>
<g>
</g>
<g>
</g>
</svg>
